<svg xmlns="http://www.w3.org/2000/svg" viewBox="0 0 600 600" width="600" height="600"><g transform="translate(179.0 193.0) rotate(46.18994893214216 139.5 139.5) scale(3.4781546332697335 3.4781546332697335)"><svg width="80.215" height="80.215" viewBox="0 0 80.215 80.215"><g data-name="Слой 2"><g data-name="Слой 2"><path style="fill:#fff" d="M0 0h80.215v80.215H0z"/></g></g></svg></g><g transform="translate(109.0 115.0) rotate(46.18994893214216 139.5 139.5) scale(3.4781546332697335 3.4781546332697335)"><svg width="80.215" height="80.215" viewBox="0 0 80.215 80.215"><g data-name="Слой 2"><g data-name="Слой 2"><path style="fill:#fff" d="M0 0h80.215v80.215H0z"/></g></g></svg></g><g transform="translate(369.0 274.0) rotate(46.189948932142165 73.5 73.5) scale(1.8325760970991067 1.8325760970991067)"><svg width="80.215" height="80.215" viewBox="0 0 80.215 80.215"><g data-name="Слой 2"><g data-name="Слой 2"><path style="fill:#fff" d="M0 0h80.215v80.215H0z"/></g></g></svg></g><g transform="translate(154.0 80.0) rotate(49.09177309273871 62.0 62.0) scale(1.545846503675437 1.545846503675437)"><svg width="80.215" height="80.215" viewBox="0 0 80.215 80.215"><g data-name="Слой 2"><g data-name="Слой 2"><path style="fill:#fff" d="M0 0h80.215v80.215H0z"/></g></g></svg></g><g transform="translate(64.0 200.0) rotate(46.18994893214218 44.5 44.5) scale(1.109518861508983 1.109518861508983)"><svg width="80.215" height="80.215" viewBox="0 0 80.215 80.215"><g data-name="Слой 2"><g data-name="Слой 2"><path style="fill:#fff" d="M0 0h80.215v80.215H0z"/></g></g></svg></g><g transform="translate(46.0 190.0) rotate(46.18994893214218 44.5 44.5) scale(1.109518861508983 1.109518861508983)"><svg width="80.215" height="80.215" viewBox="0 0 80.215 80.215"><g data-name="Слой 2"><g data-name="Слой 2"><path style="fill:#fff" d="M0 0h80.215v80.215H0z"/></g></g></svg></g><g transform="translate(155.0 109.0) rotate(49.09177309273871 62.0 62.0) scale(1.545846503675437 1.545846503675437)"><svg width="80.215" height="80.215" viewBox="0 0 80.215 80.215"><g data-name="Слой 2"><g data-name="Слой 2"><path style="fill:#fff" d="M0 0h80.215v80.215H0z"/></g></g></svg></g><g transform="translate(307.0 418.0) rotate(90.0 43.0 43.0) scale(1.072119349323287 1.072119349323287)"><svg width="80.215" height="80.215" viewBox="0 0 80.215 80.215"><g data-name="Слой 2"><g data-name="Слой 2"><path style="fill:#fff" d="M0 0h80.215v80.215H0z"/></g></g></svg></g><g transform="translate(301.0 447.0) rotate(47.204605371787466 43.0 43.0) scale(1.072119349323287 1.072119349323287)"><svg width="80.215" height="80.215" viewBox="0 0 80.215 80.215"><g data-name="Слой 2"><g data-name="Слой 2"><path style="fill:#fff" d="M0 0h80.215v80.215H0z"/></g></g></svg></g><g transform="translate(155.0 67.0) rotate(49.09177309273871 62.0 62.0) scale(1.545846503675437 1.545846503675437)"><svg width="80.215" height="80.215" viewBox="0 0 80.215 80.215"><g data-name="Слой 2"><g data-name="Слой 2"><path style="fill:#fff" d="M0 0h80.215v80.215H0z"/></g></g></svg></g><g transform="translate(194.0 207.0) rotate(46.18994893214216 139.5 139.5) scale(3.4781546332697335 3.4781546332697335)"><svg width="80.215" height="80.215" viewBox="0 0 80.215 80.215"><g data-name="Слой 2"><g data-name="Слой 2"><path style="fill:#fff" d="M0 0h80.215v80.215H0z"/></g></g></svg></g><g transform="translate(30.0 30.0) rotate(45.14022433949833 257.5 257.5) scale(8.046875 8.046875)"><svg width="64" height="64" viewBox="0 0 64 64"><linearGradient id="a" x1="32" x2="32" y1="14.833" y2="21.333" gradientUnits="userSpaceOnUse" spreadMethod="reflect"><stop offset="0" stop-color="#E78C25"/><stop offset="1" stop-color="#E78C25"/></linearGradient><path fill="url(#a)" d="M5 15h54v6H5z"/><linearGradient id="b" x1="48" x2="48" y1="28.75" y2="35.435" gradientUnits="userSpaceOnUse" spreadMethod="reflect"><stop offset="0" stop-color="#E78C25"/><stop offset="1" stop-color="#E78C25"/></linearGradient><path fill="url(#b)" d="M50 35h-4a1 1 0 0 1-1-1v-4a1 1 0 0 1 1-1h4a1 1 0 0 1 1 1v4a1 1 0 0 1-1 1z"/><linearGradient id="c" x1="32" x2="32" y1="12.5" y2="51.628" gradientUnits="userSpaceOnUse" spreadMethod="reflect"><stop offset="0" stop-color="#D2232B"/><stop offset="1" stop-color="#FDE702"/></linearGradient><path fill="url(#c)" d="M58 13H6c-1.654 0-3 1.346-3 3v17h1c1.654 0 3 1.346 3 3s-1.346 3-3 3H3v9c0 1.654 1.346 3 3 3h52c1.654 0 3-1.346 3-3v-9h-1c-1.654 0-3-1.346-3-3 0-1.689 1.612-3 3-3h1V16c0-1.654-1.346-3-3-3zm1 18.11c-2.222.491-4 2.566-4 4.89a5.008 5.008 0 0 0 4 4.899V48a1 1 0 0 1-1 1H41v-6h-2v6H6a1 1 0 0 1-1-1v-7.101c2.279-.464 4-2.484 4-4.899s-1.721-4.435-4-4.899V23h32v-2H5v-5a1 1 0 0 1 1-1h52a1 1 0 0 1 1 1v5H39v8h2v-6h18v8.11z"/><linearGradient id="d" x1="40" x2="40" y1="12.5" y2="51.628" gradientUnits="userSpaceOnUse" spreadMethod="reflect"><stop offset="0" stop-color="#D2232B"/><stop offset="1" stop-color="#FDE702"/></linearGradient><path fill="url(#d)" d="M39 33h2v6h-2z"/><linearGradient id="e" x1="21" x2="21" y1="12.5" y2="51.628" gradientUnits="userSpaceOnUse" spreadMethod="reflect"><stop offset="0" stop-color="#D2232B"/><stop offset="1" stop-color="#FDE702"/></linearGradient><path fill="url(#e)" d="M13 29h16v2H13z"/><linearGradient id="f" x1="21" x2="21" y1="12.5" y2="51.628" gradientUnits="userSpaceOnUse" spreadMethod="reflect"><stop offset="0" stop-color="#D2232B"/><stop offset="1" stop-color="#FDE702"/></linearGradient><path fill="url(#f)" d="M13 33h16v2H13z"/><linearGradient id="g" x1="20" x2="20" y1="12.5" y2="51.628" gradientUnits="userSpaceOnUse" spreadMethod="reflect"><stop offset="0" stop-color="#D2232B"/><stop offset="1" stop-color="#FDE702"/></linearGradient><path fill="url(#g)" d="M13 37h14v2H13z"/><linearGradient id="h" x1="19" x2="19" y1="12.5" y2="51.628" gradientUnits="userSpaceOnUse" spreadMethod="reflect"><stop offset="0" stop-color="#D2232B"/><stop offset="1" stop-color="#FDE702"/></linearGradient><path fill="url(#h)" d="M13 41h12v2H13z"/><linearGradient id="i" x1="50" x2="50" y1="12.5" y2="51.628" gradientUnits="userSpaceOnUse" spreadMethod="reflect"><stop offset="0" stop-color="#D2232B"/><stop offset="1" stop-color="#FDE702"/></linearGradient><path fill="url(#i)" d="M49 39h2v4h-2z"/><linearGradient id="j" x1="46" x2="46" y1="12.5" y2="51.628" gradientUnits="userSpaceOnUse" spreadMethod="reflect"><stop offset="0" stop-color="#D2232B"/><stop offset="1" stop-color="#FDE702"/></linearGradient><path fill="url(#j)" d="M45 39h2v4h-2z"/><linearGradient id="k" x1="14" x2="14" y1="12.5" y2="51.628" gradientUnits="userSpaceOnUse" spreadMethod="reflect"><stop offset="0" stop-color="#D2232B"/><stop offset="1" stop-color="#FDE702"/></linearGradient><path fill="url(#k)" d="M7 17h14v2H7z"/><linearGradient id="l" x1="34" x2="34" y1="12.5" y2="51.628" gradientUnits="userSpaceOnUse" spreadMethod="reflect"><stop offset="0" stop-color="#D2232B"/><stop offset="1" stop-color="#FDE702"/></linearGradient><path fill="url(#l)" d="M31 17h6v2h-6z"/><linearGradient id="m" x1="26" x2="26" y1="12.5" y2="51.628" gradientUnits="userSpaceOnUse" spreadMethod="reflect"><stop offset="0" stop-color="#D2232B"/><stop offset="1" stop-color="#FDE702"/></linearGradient><path fill="url(#m)" d="M23 17h6v2h-6z"/></svg></g><g transform="translate(123.0 129.0) rotate(46.18994893214216 139.5 139.5) scale(3.4781546332697335 3.4781546332697335)"><svg width="80.215" height="80.215" viewBox="0 0 80.215 80.215"><g data-name="Слой 2"><g data-name="Слой 2"><path style="fill:#fff" d="M0 0h80.215v80.215H0z"/></g></g></svg></g><g transform="translate(383.0 288.0) rotate(46.189948932142165 73.5 73.5) scale(1.8325760970991067 1.8325760970991067)"><svg width="80.215" height="80.215" viewBox="0 0 80.215 80.215"><g data-name="Слой 2"><g data-name="Слой 2"><path style="fill:#fff" d="M0 0h80.215v80.215H0z"/></g></g></svg></g><g transform="translate(168.0 94.0) rotate(49.09177309273871 62.0 62.0) scale(1.545846503675437 1.545846503675437)"><svg width="80.215" height="80.215" viewBox="0 0 80.215 80.215"><g data-name="Слой 2"><g data-name="Слой 2"><path style="fill:#fff" d="M0 0h80.215v80.215H0z"/></g></g></svg></g><g transform="translate(78.0 214.0) rotate(46.18994893214218 44.5 44.5) scale(1.109518861508983 1.109518861508983)"><svg width="80.215" height="80.215" viewBox="0 0 80.215 80.215"><g data-name="Слой 2"><g data-name="Слой 2"><path style="fill:#fff" d="M0 0h80.215v80.215H0z"/></g></g></svg></g><g transform="translate(60.0 204.0) rotate(46.18994893214218 44.5 44.5) scale(1.109518861508983 1.109518861508983)"><svg width="80.215" height="80.215" viewBox="0 0 80.215 80.215"><g data-name="Слой 2"><g data-name="Слой 2"><path style="fill:#fff" d="M0 0h80.215v80.215H0z"/></g></g></svg></g><g transform="translate(169.0 123.0) rotate(49.09177309273871 62.0 62.0) scale(1.545846503675437 1.545846503675437)"><svg width="80.215" height="80.215" viewBox="0 0 80.215 80.215"><g data-name="Слой 2"><g data-name="Слой 2"><path style="fill:#fff" d="M0 0h80.215v80.215H0z"/></g></g></svg></g><g transform="translate(320.0 432.0) rotate(90.0 43.0 43.0) scale(1.072119349323287 1.072119349323287)"><svg width="80.215" height="80.215" viewBox="0 0 80.215 80.215"><g data-name="Слой 2"><g data-name="Слой 2"><path style="fill:#fff" d="M0 0h80.215v80.215H0z"/></g></g></svg></g><g transform="translate(316.0 461.0) rotate(47.204605371787466 43.0 43.0) scale(1.072119349323287 1.072119349323287)"><svg width="80.215" height="80.215" viewBox="0 0 80.215 80.215"><g data-name="Слой 2"><g data-name="Слой 2"><path style="fill:#fff" d="M0 0h80.215v80.215H0z"/></g></g></svg></g><g transform="translate(169.0 81.0) rotate(49.09177309273871 62.0 62.0) scale(1.545846503675437 1.545846503675437)"><svg width="80.215" height="80.215" viewBox="0 0 80.215 80.215"><g data-name="Слой 2"><g data-name="Слой 2"><path style="fill:#fff" d="M0 0h80.215v80.215H0z"/></g></g></svg></g><g transform="translate(43.0 44.0) rotate(45.14022433949833 257.5 257.5) scale(8.046875 8.046875)"><svg width="64" height="64" viewBox="0 0 64 64"><linearGradient id="n" x1="32" x2="32" y1="14.833" y2="21.333" gradientUnits="userSpaceOnUse" spreadMethod="reflect"><stop offset="0" stop-color="#E78C25"/><stop offset="1" stop-color="#E78C25"/></linearGradient><path fill="url(#n)" d="M5 15h54v6H5z"/><linearGradient id="o" x1="48" x2="48" y1="28.75" y2="35.435" gradientUnits="userSpaceOnUse" spreadMethod="reflect"><stop offset="0" stop-color="#E78C25"/><stop offset="1" stop-color="#E78C25"/></linearGradient><path fill="url(#o)" d="M50 35h-4a1 1 0 0 1-1-1v-4a1 1 0 0 1 1-1h4a1 1 0 0 1 1 1v4a1 1 0 0 1-1 1z"/><linearGradient id="p" x1="32" x2="32" y1="12.5" y2="51.628" gradientUnits="userSpaceOnUse" spreadMethod="reflect"><stop offset="0" stop-color="#D2232B"/><stop offset="1" stop-color="#FDE702"/></linearGradient><path fill="url(#p)" d="M58 13H6c-1.654 0-3 1.346-3 3v17h1c1.654 0 3 1.346 3 3s-1.346 3-3 3H3v9c0 1.654 1.346 3 3 3h52c1.654 0 3-1.346 3-3v-9h-1c-1.654 0-3-1.346-3-3 0-1.689 1.612-3 3-3h1V16c0-1.654-1.346-3-3-3zm1 18.11c-2.222.491-4 2.566-4 4.89a5.008 5.008 0 0 0 4 4.899V48a1 1 0 0 1-1 1H41v-6h-2v6H6a1 1 0 0 1-1-1v-7.101c2.279-.464 4-2.484 4-4.899s-1.721-4.435-4-4.899V23h32v-2H5v-5a1 1 0 0 1 1-1h52a1 1 0 0 1 1 1v5H39v8h2v-6h18v8.11z"/><linearGradient id="q" x1="40" x2="40" y1="12.5" y2="51.628" gradientUnits="userSpaceOnUse" spreadMethod="reflect"><stop offset="0" stop-color="#D2232B"/><stop offset="1" stop-color="#FDE702"/></linearGradient><path fill="url(#q)" d="M39 33h2v6h-2z"/><linearGradient id="r" x1="21" x2="21" y1="12.5" y2="51.628" gradientUnits="userSpaceOnUse" spreadMethod="reflect"><stop offset="0" stop-color="#D2232B"/><stop offset="1" stop-color="#FDE702"/></linearGradient><path fill="url(#r)" d="M13 29h16v2H13z"/><linearGradient id="s" x1="21" x2="21" y1="12.5" y2="51.628" gradientUnits="userSpaceOnUse" spreadMethod="reflect"><stop offset="0" stop-color="#D2232B"/><stop offset="1" stop-color="#FDE702"/></linearGradient><path fill="url(#s)" d="M13 33h16v2H13z"/><linearGradient id="t" x1="20" x2="20" y1="12.5" y2="51.628" gradientUnits="userSpaceOnUse" spreadMethod="reflect"><stop offset="0" stop-color="#D2232B"/><stop offset="1" stop-color="#FDE702"/></linearGradient><path fill="url(#t)" d="M13 37h14v2H13z"/><linearGradient id="u" x1="19" x2="19" y1="12.5" y2="51.628" gradientUnits="userSpaceOnUse" spreadMethod="reflect"><stop offset="0" stop-color="#D2232B"/><stop offset="1" stop-color="#FDE702"/></linearGradient><path fill="url(#u)" d="M13 41h12v2H13z"/><linearGradient id="v" x1="50" x2="50" y1="12.5" y2="51.628" gradientUnits="userSpaceOnUse" spreadMethod="reflect"><stop offset="0" stop-color="#D2232B"/><stop offset="1" stop-color="#FDE702"/></linearGradient><path fill="url(#v)" d="M49 39h2v4h-2z"/><linearGradient id="w" x1="46" x2="46" y1="12.5" y2="51.628" gradientUnits="userSpaceOnUse" spreadMethod="reflect"><stop offset="0" stop-color="#D2232B"/><stop offset="1" stop-color="#FDE702"/></linearGradient><path fill="url(#w)" d="M45 39h2v4h-2z"/><linearGradient id="x" x1="14" x2="14" y1="12.5" y2="51.628" gradientUnits="userSpaceOnUse" spreadMethod="reflect"><stop offset="0" stop-color="#D2232B"/><stop offset="1" stop-color="#FDE702"/></linearGradient><path fill="url(#x)" d="M7 17h14v2H7z"/><linearGradient id="y" x1="34" x2="34" y1="12.5" y2="51.628" gradientUnits="userSpaceOnUse" spreadMethod="reflect"><stop offset="0" stop-color="#D2232B"/><stop offset="1" stop-color="#FDE702"/></linearGradient><path fill="url(#y)" d="M31 17h6v2h-6z"/><linearGradient id="z" x1="26" x2="26" y1="12.5" y2="51.628" gradientUnits="userSpaceOnUse" spreadMethod="reflect"><stop offset="0" stop-color="#D2232B"/><stop offset="1" stop-color="#FDE702"/></linearGradient><path fill="url(#z)" d="M23 17h6v2h-6z"/></svg></g><g transform="translate(207.0 220.0) rotate(46.18994893214216 139.5 139.5) scale(3.4781546332697335 3.4781546332697335)"><svg width="80.215" height="80.215" viewBox="0 0 80.215 80.215"><g data-name="Слой 2"><g data-name="Слой 2"><path style="fill:#fff" d="M0 0h80.215v80.215H0z"/></g></g></svg></g><g transform="translate(136.0 142.0) rotate(46.18994893214216 139.5 139.5) scale(3.4781546332697335 3.4781546332697335)"><svg width="80.215" height="80.215" viewBox="0 0 80.215 80.215"><g data-name="Слой 2"><g data-name="Слой 2"><path style="fill:#fff" d="M0 0h80.215v80.215H0z"/></g></g></svg></g><g transform="translate(396.0 301.0) rotate(46.189948932142165 73.5 73.5) scale(1.8325760970991067 1.8325760970991067)"><svg width="80.215" height="80.215" viewBox="0 0 80.215 80.215"><g data-name="Слой 2"><g data-name="Слой 2"><path style="fill:#fff" d="M0 0h80.215v80.215H0z"/></g></g></svg></g><g transform="translate(181.0 107.0) rotate(49.09177309273871 62.0 62.0) scale(1.545846503675437 1.545846503675437)"><svg width="80.215" height="80.215" viewBox="0 0 80.215 80.215"><g data-name="Слой 2"><g data-name="Слой 2"><path style="fill:#fff" d="M0 0h80.215v80.215H0z"/></g></g></svg></g><g transform="translate(90.0 227.0) rotate(46.18994893214218 44.5 44.5) scale(1.109518861508983 1.109518861508983)"><svg width="80.215" height="80.215" viewBox="0 0 80.215 80.215"><g data-name="Слой 2"><g data-name="Слой 2"><path style="fill:#fff" d="M0 0h80.215v80.215H0z"/></g></g></svg></g><g transform="translate(73.0 217.0) rotate(46.18994893214218 44.5 44.5) scale(1.109518861508983 1.109518861508983)"><svg width="80.215" height="80.215" viewBox="0 0 80.215 80.215"><g data-name="Слой 2"><g data-name="Слой 2"><path style="fill:#fff" d="M0 0h80.215v80.215H0z"/></g></g></svg></g><g transform="translate(182.0 136.0) rotate(49.09177309273871 62.0 62.0) scale(1.545846503675437 1.545846503675437)"><svg width="80.215" height="80.215" viewBox="0 0 80.215 80.215"><g data-name="Слой 2"><g data-name="Слой 2"><path style="fill:#fff" d="M0 0h80.215v80.215H0z"/></g></g></svg></g><g transform="translate(334.0 445.0) rotate(90.0 43.0 43.0) scale(1.072119349323287 1.072119349323287)"><svg width="80.215" height="80.215" viewBox="0 0 80.215 80.215"><g data-name="Слой 2"><g data-name="Слой 2"><path style="fill:#fff" d="M0 0h80.215v80.215H0z"/></g></g></svg></g><g transform="translate(328.0 474.0) rotate(47.204605371787466 43.0 43.0) scale(1.072119349323287 1.072119349323287)"><svg width="80.215" height="80.215" viewBox="0 0 80.215 80.215"><g data-name="Слой 2"><g data-name="Слой 2"><path style="fill:#fff" d="M0 0h80.215v80.215H0z"/></g></g></svg></g><g transform="translate(182.0 94.0) rotate(49.09177309273871 62.0 62.0) scale(1.545846503675437 1.545846503675437)"><svg width="80.215" height="80.215" viewBox="0 0 80.215 80.215"><g data-name="Слой 2"><g data-name="Слой 2"><path style="fill:#fff" d="M0 0h80.215v80.215H0z"/></g></g></svg></g><g transform="translate(57.0 57.0) rotate(45.14022433949833 257.5 257.5) scale(8.046875 8.046875)"><svg width="64" height="64" viewBox="0 0 64 64"><linearGradient id="A" x1="32" x2="32" y1="14.833" y2="21.333" gradientUnits="userSpaceOnUse" spreadMethod="reflect"><stop offset="0" stop-color="#E78C25"/><stop offset="1" stop-color="#E78C25"/></linearGradient><path fill="url(#A)" d="M5 15h54v6H5z"/><linearGradient id="B" x1="48" x2="48" y1="28.75" y2="35.435" gradientUnits="userSpaceOnUse" spreadMethod="reflect"><stop offset="0" stop-color="#E78C25"/><stop offset="1" stop-color="#E78C25"/></linearGradient><path fill="url(#B)" d="M50 35h-4a1 1 0 0 1-1-1v-4a1 1 0 0 1 1-1h4a1 1 0 0 1 1 1v4a1 1 0 0 1-1 1z"/><linearGradient id="C" x1="32" x2="32" y1="12.5" y2="51.628" gradientUnits="userSpaceOnUse" spreadMethod="reflect"><stop offset="0" stop-color="#D2232B"/><stop offset="1" stop-color="#FDE702"/></linearGradient><path fill="url(#C)" d="M58 13H6c-1.654 0-3 1.346-3 3v17h1c1.654 0 3 1.346 3 3s-1.346 3-3 3H3v9c0 1.654 1.346 3 3 3h52c1.654 0 3-1.346 3-3v-9h-1c-1.654 0-3-1.346-3-3 0-1.689 1.612-3 3-3h1V16c0-1.654-1.346-3-3-3zm1 18.11c-2.222.491-4 2.566-4 4.89a5.008 5.008 0 0 0 4 4.899V48a1 1 0 0 1-1 1H41v-6h-2v6H6a1 1 0 0 1-1-1v-7.101c2.279-.464 4-2.484 4-4.899s-1.721-4.435-4-4.899V23h32v-2H5v-5a1 1 0 0 1 1-1h52a1 1 0 0 1 1 1v5H39v8h2v-6h18v8.11z"/><linearGradient id="D" x1="40" x2="40" y1="12.5" y2="51.628" gradientUnits="userSpaceOnUse" spreadMethod="reflect"><stop offset="0" stop-color="#D2232B"/><stop offset="1" stop-color="#FDE702"/></linearGradient><path fill="url(#D)" d="M39 33h2v6h-2z"/><linearGradient id="E" x1="21" x2="21" y1="12.5" y2="51.628" gradientUnits="userSpaceOnUse" spreadMethod="reflect"><stop offset="0" stop-color="#D2232B"/><stop offset="1" stop-color="#FDE702"/></linearGradient><path fill="url(#E)" d="M13 29h16v2H13z"/><linearGradient id="F" x1="21" x2="21" y1="12.5" y2="51.628" gradientUnits="userSpaceOnUse" spreadMethod="reflect"><stop offset="0" stop-color="#D2232B"/><stop offset="1" stop-color="#FDE702"/></linearGradient><path fill="url(#F)" d="M13 33h16v2H13z"/><linearGradient id="G" x1="20" x2="20" y1="12.5" y2="51.628" gradientUnits="userSpaceOnUse" spreadMethod="reflect"><stop offset="0" stop-color="#D2232B"/><stop offset="1" stop-color="#FDE702"/></linearGradient><path fill="url(#G)" d="M13 37h14v2H13z"/><linearGradient id="H" x1="19" x2="19" y1="12.5" y2="51.628" gradientUnits="userSpaceOnUse" spreadMethod="reflect"><stop offset="0" stop-color="#D2232B"/><stop offset="1" stop-color="#FDE702"/></linearGradient><path fill="url(#H)" d="M13 41h12v2H13z"/><linearGradient id="I" x1="50" x2="50" y1="12.5" y2="51.628" gradientUnits="userSpaceOnUse" spreadMethod="reflect"><stop offset="0" stop-color="#D2232B"/><stop offset="1" stop-color="#FDE702"/></linearGradient><path fill="url(#I)" d="M49 39h2v4h-2z"/><linearGradient id="J" x1="46" x2="46" y1="12.5" y2="51.628" gradientUnits="userSpaceOnUse" spreadMethod="reflect"><stop offset="0" stop-color="#D2232B"/><stop offset="1" stop-color="#FDE702"/></linearGradient><path fill="url(#J)" d="M45 39h2v4h-2z"/><linearGradient id="K" x1="14" x2="14" y1="12.5" y2="51.628" gradientUnits="userSpaceOnUse" spreadMethod="reflect"><stop offset="0" stop-color="#D2232B"/><stop offset="1" stop-color="#FDE702"/></linearGradient><path fill="url(#K)" d="M7 17h14v2H7z"/><linearGradient id="L" x1="34" x2="34" y1="12.5" y2="51.628" gradientUnits="userSpaceOnUse" spreadMethod="reflect"><stop offset="0" stop-color="#D2232B"/><stop offset="1" stop-color="#FDE702"/></linearGradient><path fill="url(#L)" d="M31 17h6v2h-6z"/><linearGradient id="M" x1="26" x2="26" y1="12.5" y2="51.628" gradientUnits="userSpaceOnUse" spreadMethod="reflect"><stop offset="0" stop-color="#D2232B"/><stop offset="1" stop-color="#FDE702"/></linearGradient><path fill="url(#M)" d="M23 17h6v2h-6z"/></svg></g></svg>