<svg xmlns="http://www.w3.org/2000/svg" viewBox="0 0 420 400" width="420" height="400"><path fill="#FFF" d="M0 0h420v400H0z"/><g transform="translate(-326.0 -144.0) rotate(0.0 540.0 285.0) scale(1.0 1.0)"><svg width="1080" height="570" viewBox="0 0 1080 570"><g><path fill="#EC008D" d="M375.77 356.63h-10.8V343.5q-9-1.05-13.09-5.85-4.08-4.8-4.46-14.55-.07-4.28-.11-7.99-.04-3.71.04-7.5.07-3.79.22-8.21h11.48q-.3 6.67-.34 12.79-.04 6.11.34 12.41.22 5.03 2.81 7.01 2.59 1.99 8.74 1.99 5.77 0 8.28-1.99 2.52-1.98 2.82-7.01.3-3.22.33-7.01.04-3.79-.07-7.54-.11-3.75-.26-7.05-.15-6-2.4-9t-7.35-4.28l-8.33-2.02q-6.15-1.5-9.67-4.39-3.53-2.89-5.03-7.76-1.5-4.88-1.72-12.38-.08-4.87-.04-10.16t.11-10.69q.3-9.67 4.39-14.47 4.09-4.8 13.31-5.7v-14.18h10.8v14.18q8.85.9 12.94 5.7t4.46 14.62q.15 4.65.08 10.24-.08 5.59-.23 11.74h-11.55q.23-6.9.26-12.53.04-5.62-.18-10.95-.23-5.02-2.7-7.01-2.48-1.99-8.4-1.99-5.93 0-8.44 1.99t-2.81 7.01q-.3 5.7-.3 11.03 0 5.32.3 11.17.15 6.45 1.8 9.49 1.65 3.04 5.7 4.01l7.87 1.8q7.05 1.66 11.14 4.58 4.09 2.92 5.92 7.8 1.84 4.87 2.07 12.15.15 3.15.15 6.64 0 3.49-.08 6.93-.07 3.45-.15 6.53-.45 9.82-4.57 14.66-4.13 4.84-13.28 5.74v13.13Zm55.58-12.53q-12.23 0-17.59-5.1-5.36-5.1-5.59-16.35-.15-10.65-.26-21.04-.11-10.39-.11-20.36 0-9.98.07-19.54.08-9.56.3-18.64.38-10.95 6.19-16.12 5.81-5.18 16.84-5.18 11.17 0 17.13 5.25 5.97 5.25 6.34 15.6.15 2.93.15 5.97 0 3.03-.04 6.26-.03 3.22-.11 6.45h-12q.15-3.3.19-6.64.04-3.34 0-6.75t-.19-6.79q-.15-4.87-3.04-7.12-2.88-2.25-8.36-2.25-5.32 0-8.06 2.21t-2.89 7.01q-.22 7.88-.37 16.92-.15 9.03-.23 19.08h2.85q1.8-2.92 5.93-4.8 4.12-1.87 8.92-1.87 9.3 0 13.54 4.35 4.24 4.35 4.46 15 .23 6.67.3 11.7.08 5.03.04 9.9-.04 4.88-.34 11.4-.6 11.48-6.19 16.46-5.58 4.99-17.88 4.99Zm.07-10.13q5.63 0 8.7-2.21 3.08-2.21 3.15-7.24.15-5.25.23-9.33.07-4.09.11-7.88.04-3.79.04-7.91 0-4.13-.15-9.45-.08-5.1-3.04-7.31-2.96-2.22-7.76-2.22-5.25 0-9 2.4t-3.98 6.9q0 8.1.11 16.69.12 8.59.34 17.74.15 5.32 3.08 7.57 2.92 2.25 8.17 2.25Zm61.28 9.98q-10.8 0-16.84-5.36-6.04-5.37-6.26-15.71-.23-15.75-.3-29.48-.08-13.73.03-26.18.12-12.45.27-24.37.22-10.35 6.11-15.75 5.89-5.4 16.99-5.4 10.8 0 16.83 5.4 6.04 5.4 6.19 15.75.23 8.92.34 18.94.11 10.01.11 20.4 0 10.38-.11 20.7-.11 10.31-.34 19.99-.22 10.27-6.26 15.67t-16.76 5.4Zm0-9.98q10.65 0 10.87-9.07.45-15.38.56-29.85.12-14.48 0-28.05-.11-13.58-.56-26.18-.22-9.15-10.87-9.15-10.73 0-10.95 9.15-.3 13.28-.42 23.89-.11 10.61-.11 20.03 0 9.41.11 19.05.12 9.63.42 20.96.22 9.22 10.95 9.22Zm48.22 25.13h-8.02l7.2-16.28h-11.4v-14.69H550v13.34l-9.08 17.63Zm45.15-15.15q-10.8 0-16.84-5.36-6.03-5.37-6.26-15.71-.22-15.75-.3-29.48-.07-13.73.04-26.18.11-12.45.26-24.37.23-10.35 6.11-15.75 5.89-5.4 16.99-5.4 10.8 0 16.84 5.4 6.04 5.4 6.19 15.75.22 8.92.33 18.94.12 10.01.12 20.4 0 10.38-.12 20.7-.11 10.31-.33 19.99-.23 10.27-6.27 15.67-6.03 5.4-16.76 5.4Zm0-9.98q10.65 0 10.88-9.07.45-15.38.56-29.85.11-14.48 0-28.05-.11-13.58-.56-26.18-.23-9.15-10.88-9.15-10.72 0-10.95 9.15-.3 13.28-.41 23.89-.11 10.61-.11 20.03 0 9.41.11 19.05.11 9.63.41 20.96.23 9.22 10.95 9.22Zm61.43 9.98q-10.8 0-16.84-5.36-6.04-5.37-6.26-15.71-.23-15.75-.3-29.48-.08-13.73.03-26.18.12-12.45.27-24.37.22-10.35 6.11-15.75 5.89-5.4 16.99-5.4 10.8 0 16.83 5.4 6.04 5.4 6.19 15.75.23 8.92.34 18.94.11 10.01.11 20.4 0 10.38-.11 20.7-.11 10.31-.34 19.99-.22 10.27-6.26 15.67t-16.76 5.4Zm0-9.98q10.65 0 10.87-9.07.45-15.38.56-29.85.12-14.48 0-28.05-.11-13.58-.56-26.18-.22-9.15-10.87-9.15-10.73 0-10.95 9.15-.3 13.28-.42 23.89-.11 10.61-.11 20.03 0 9.41.11 19.05.12 9.63.42 20.96.22 9.22 10.95 9.22Zm61.42 9.98q-10.8 0-16.84-5.36-6.03-5.37-6.26-15.71-.22-15.75-.3-29.48-.07-13.73.04-26.18.11-12.45.26-24.37.23-10.35 6.11-15.75 5.89-5.4 16.99-5.4 10.8 0 16.84 5.4 6.04 5.4 6.19 15.75.22 8.92.33 18.94.12 10.01.12 20.4 0 10.38-.12 20.7-.11 10.31-.33 19.99-.23 10.27-6.27 15.67-6.03 5.4-16.76 5.4Zm0-9.98q10.65 0 10.88-9.07.45-15.38.56-29.85.11-14.48 0-28.05-.11-13.58-.56-26.18-.23-9.15-10.88-9.15-10.72 0-10.95 9.15-.3 13.28-.41 23.89-.11 10.61-.11 20.03 0 9.41.11 19.05.11 9.63.41 20.96.23 9.22 10.95 9.22Z"/></g></svg></g><g transform="translate(-327.0 6.0) rotate(0.0 540.0 285.0) scale(1.0 1.0)"><svg width="1080" height="570" viewBox="0 0 1080 570"><g><path fill="#EC008D" d="M448.95 343.95q-11.92 0-17.51-4.8-5.59-4.8-5.74-15.9-.15-11.03-.22-20.96-.08-9.94-.08-19.47 0-9.52.08-19.42.07-9.9.22-20.93.15-10.87 5.74-15.71 5.59-4.84 17.51-4.84 11.93 0 17.55 4.88 5.63 4.87 6.08 15.67.15 3.9.18 7.47.04 3.56-.03 7.08-.08 3.53-.3 7.5h-11.85q.15-4.05.18-7.65.04-3.6.04-7.2t-.15-7.57q-.22-5.7-2.85-7.84-2.62-2.14-8.85-2.14-6.07 0-8.66 2.14t-2.74 7.84q-.22 11.77-.37 21.64-.15 9.86-.15 19.12 0 9.27.15 19.13t.37 21.71q.15 5.7 2.78 7.87 2.62 2.18 8.62 2.18 6.6 0 9.34-2.18 2.74-2.17 2.96-7.87.15-3.45.15-6.79t-.07-7.5q-.08-4.16-.23-9.86h11.93q.3 7.2.33 12.71.04 5.51-.18 10.99-.45 11.1-6.12 15.9-5.66 4.8-18.11 4.8Zm47.25-1.13h-12.22l12.9-120h24.52l12.83 120h-12.15l-3.08-33.9h-19.8l-3 33.9Zm6.38-69.97-2.33 25.35h17.78l-2.33-25.43-3.3-39.22h-6.45l-3.37 39.3Zm65.92 71.03q-12.07 0-17.44-4.84-5.36-4.84-5.73-15.94-.08-4.28-.12-7.99-.03-3.71.04-7.5.08-3.79.23-8.21h11.47q-.3 6.67-.34 12.79-.03 6.11.34 12.41.23 5.03 2.81 7.01 2.59 1.99 8.74 1.99 5.78 0 8.29-1.99 2.51-1.98 2.81-7.01.3-3.22.34-7.01.04-3.79-.08-7.54-.11-3.75-.26-7.05-.15-6-2.4-9t-7.35-4.28l-8.32-2.02q-6.15-1.5-9.68-4.39-3.52-2.89-5.02-7.76-1.5-4.88-1.73-12.38-.07-4.87-.04-10.16.04-5.29.12-10.69.22-7.42 2.62-11.92t7.46-6.56q5.07-2.07 13.24-2.07 11.7 0 16.95 4.8t5.63 15.9q.15 4.65.07 10.24-.07 5.59-.22 11.74h-11.55q.22-6.9.26-12.53.04-5.62-.19-10.95-.22-5.02-2.7-7.01-2.47-1.99-8.4-1.99-5.92 0-8.44 1.99-2.51 1.99-2.81 7.01-.3 5.7-.3 11.03 0 5.32.3 11.17.15 6.45 1.8 9.49 1.65 3.04 5.7 4.01l7.88 1.8q7.05 1.66 11.13 4.58 4.09 2.92 5.93 7.8 1.84 4.87 2.06 12.15.15 3.15.15 6.64 0 3.49-.07 6.93l-.15 6.53q-.45 11.1-5.74 15.94t-17.29 4.84Zm50.93-1.06H607.5v-120h11.93v54.3h22.12v-54.3h11.93v120h-11.93v-54.97h-22.12v54.97Z"/></g></svg></g></svg>