<svg xmlns="http://www.w3.org/2000/svg" viewBox="0 0 420 400" width="420" height="400"><path fill="#FFF" d="M0 0h420v400H0z"/><g transform="translate(-115.0 -77.0) rotate(0.0 324.0 171.0) scale(1.0 1.0)"><svg width="648" height="342" viewBox="0 0 648 342"><g><path fill="#EC008D" d="M217.64 205.17v-59.68h20.43q4.4 0 7.87 1.21 3.47 1.21 5.89 3.51 2.41 2.31 3.67 5.63 1.25 3.32 1.25 7.54 0 3.82-1.34 7.31-1.34 3.5-4 6.2t-6.62 4.31q-3.95 1.6-9.18 1.6-1.67 0-3.12-.04-1.45-.05-2.55-.14-1.27-.08-2.33-.22v22.77h-9.97Zm9.97-52.03v21.84q.66.08 1.98.19 1.32.11 3.16.11 2.99 0 5.52-.61 2.53-.62 4.37-1.96 1.85-1.34 2.88-3.49 1.03-2.15 1.03-5.23 0-2.46-.5-4.46-.51-2-1.59-3.43-1.07-1.43-2.79-2.19-1.71-.77-4.13-.77h-9.93Zm34.76 6.63h8.09l4.52 4.75q.49-1.1 1.26-2.09.77-.99 1.8-1.74 1.03-.74 2.33-1.18 1.29-.44 2.83-.44 1.28 0 2.46.2 1.19.19 2.6.68.04.09.11.7.06.62.06 1.54 0 .7-.09 1.65-.08.94-.28 1.93t-.57 1.96q-.38.96-.95 1.67l-.83.22q-.88-.44-1.96-.75-1.07-.31-2.22-.31-1.76 0-2.94.24-1.19.24-1.94.51-.87.31-1.4.7v35.16h-9.41V168.3l-3.47-3.56v-4.97Zm38.59-7.12q-1.23 0-2.31-.44t-1.89-1.18q-.81-.75-1.3-1.74-.48-.99-.48-2.13 0-1.19.48-2.2.49-1.01 1.3-1.76.81-.74 1.89-1.16 1.08-.42 2.31-.42t2.33.42q1.09.42 1.91 1.16.81.75 1.29 1.76.49 1.01.49 2.2 0 1.14-.49 2.13-.48.99-1.29 1.74-.82.74-1.91 1.18-1.1.44-2.33.44Zm-5.06 44.96v-37.35h9.14v37.52l2.6 1.85v5.54h-2.51l-.09-.09v.09q-4.35 0-6.74-1.76-2.4-1.76-2.4-5.8Zm20.04 7.56-.44-6.07 16.97-25.31 6.37-6.42-20.53.05q-.3-1.14-.52-2.13-.22-.99-.22-2.27 0-.74.06-1.25.07-.5.16-.86.13-.39.26-.7h30.24l.44 6.37-16.79 23.87-6.64 7.55h23.82q0 .36.04.71.05.31.07.68.02.37.02.68 0 .92-.2 2.2-.19 1.27-.9 2.9h-32.21Zm38.89-22.02q0-6.33 1.54-10.9t4.31-7.51q2.77-2.95 6.61-4.33 3.85-1.39 8.46-1.39 4.26 0 7.63 1.43 3.36 1.43 5.69 4.02 2.33 2.6 3.56 6.2t1.23 7.95q0 1.5-.13 2.77-.14 1.28-.31 2.2-.18 1.1-.4 1.98l-28.83-.13q.05 3.91.84 6.48.79 2.57 2.35 4.06 1.56 1.5 3.93 2.09 2.38.59 5.63.59 2.77 0 4.96-.35 2.2-.35 3.74-.83 1.76-.53 3.16-1.23.66 1.53 1.04 2.85.37 1.32.55 2.29.17 1.14.26 2.02-1.45.75-3.52 1.32-1.75.48-4.3.9-2.55.42-5.89.42-5.28 0-9.38-1.19-4.11-1.19-6.95-3.89-2.83-2.7-4.3-7.07-1.48-4.38-1.48-10.75Zm9.5-4.13h20.12v-1.49q0-2.77-.68-4.9-.68-2.14-1.87-3.59-1.18-1.45-2.81-2.19-1.62-.75-3.51-.75-2.77 0-4.88.73-2.11.72-3.54 2.28-1.43 1.56-2.13 4.02-.7 2.46-.7 5.89Zm36.73 24.13q0-1.01.18-2.2.13-1.01.42-2.31.28-1.29.85-2.7 1.94.75 4.05 1.32 1.8.48 3.91.9 2.11.42 4.17.42 1.85 0 3.43-.14 1.58-.13 2.75-.72 1.16-.59 1.82-1.8.66-1.21.66-3.36 0-2.6-1.6-4.09-1.61-1.5-5.56-2.24-4.09-.79-6.88-2.11-2.79-1.32-4.53-3.06-1.73-1.73-2.5-3.89-.77-2.15-.77-4.61 0-3.69 1.19-6.28 1.18-2.6 3.45-4.2 2.26-1.6 5.62-2.33 3.36-.73 7.71-.73 3.04 0 5.39.42 2.35.42 3.93.9 1.85.57 3.21 1.32-.13.97-.49 2.11-.3.97-.81 2.2-.5 1.23-1.34 2.5-1.19-.7-2.72-1.23-1.32-.48-3.17-.85-1.84-.38-4.22-.38-1.84 0-3.4.18-1.56.17-2.68.79-1.12.61-1.74 1.87-.61 1.25-.61 3.4 0 1.06.28 1.91.29.86 1.14 1.56.86.71 2.42 1.3 1.56.59 4.15 1.17 4.05.87 6.75 2.02 2.7 1.14 4.31 2.77 1.6 1.62 2.28 3.8.68 2.17.68 5.16 0 3.21-1.01 5.8t-3.16 4.44q-2.16 1.84-5.54 2.86-3.38 1.01-8.17 1.01-3.08 0-5.61-.44-2.52-.44-4.37-1.01-2.15-.62-3.87-1.45Z"/></g></svg></g><g transform="translate(119.0 153.0) rotate(0.0 90.0 90.0) scale(6.923076923076923 6.923076923076923)"><svg width="26" height="26" viewBox="0 0 26 26"><path d="M3 4C1.355 4 0 5.355 0 7v12c0 1.645 1.355 3 3 3h20c1.645 0 3-1.355 3-3V7c0-1.645-1.355-3-3-3Zm0 2h6v2h2V6h12c.566 0 1 .434 1 1v5h-6v2h6v5c0 .566-.434 1-1 1H11v-4H9v4H3c-.566 0-1-.434-1-1V7c0-.566.434-1 1-1Zm3 2c-1.645 0-3 1.355-3 3s1.355 3 3 3h.48c-.671.703-1.246 1.621-1.464 2.82l1.968.36c.352-1.93 2.336-2.844 3-3.102.657.277 2.688 1.262 3.032 3.11l1.968-.375c-.226-1.188-.812-2.11-1.5-2.813H14c1.645 0 3-1.355 3-3s-1.355-3-3-3c-1.75 0-2.93 1.316-3.707 2.426-.11.156-.2.3-.293.453a12.38 12.38 0 0 0-.29-.453C8.93 9.316 7.75 8 6 8Zm0 2c.625 0 1.445.684 2.07 1.574.149.211.121.227.239.426H6c-.566 0-1-.434-1-1 0-.566.434-1 1-1Zm8 0c.566 0 1 .434 1 1 0 .566-.434 1-1 1h-2.309c.118-.2.09-.215.235-.426C12.555 10.684 13.375 10 14 10Z" fill="#EC008D"/></svg></g></svg>